<svg width="119" height="11" viewBox="0 0 119 11" fill="none" xmlns="http://www.w3.org/2000/svg">
<path d="M1.45 8.866H5.426V10H0.106V0.647999H5.3V1.782H1.45V4.61H5.076V5.716H1.45V8.866ZM8.60039 1.782V8.866H9.76239C10.8637 8.866 11.6104 8.58133 12.0024 8.012C12.3944 7.44267 12.5904 6.54667 12.5904 5.324C12.5904 4.10133 12.3944 3.20533 12.0024 2.636C11.6104 2.06667 10.8637 1.782 9.76239 1.782H8.60039ZM9.66439 10H7.25639V0.647999H9.66439C10.8591 0.647999 11.6897 0.773999 12.1564 1.026C13.3511 1.63267 13.9484 3.07 13.9484 5.338C13.9484 7.59667 13.3511 9.02933 12.1564 9.636C11.6991 9.87867 10.8684 10 9.66439 10ZM15.7453 6.57V0.647999H17.0893V6.374C17.0893 7.34467 17.2106 7.99333 17.4533 8.32C17.7146 8.75867 18.2093 8.978 18.9373 8.978C19.6746 8.978 20.1786 8.75867 20.4493 8.32C20.7013 7.97467 20.8273 7.326 20.8273 6.374V0.647999H22.1713V6.57C22.1713 7.662 21.9613 8.50667 21.5413 9.104C21.028 9.804 20.174 10.1587 18.9793 10.168C17.7846 10.1773 16.9166 9.82267 16.3753 9.104C15.9553 8.50667 15.7453 7.662 15.7453 6.57ZM29.4706 5.548V6.654H24.1086V5.548H29.4706ZM36.4585 7.564C36.4585 8.32 36.1879 8.94533 35.6465 9.44C35.1052 9.93467 34.3912 10.182 33.5045 10.182C33.0285 10.182 32.5199 10.1307 31.9785 10.028C31.4465 9.92533 31.0172 9.79467 30.6905 9.636L31.0545 8.446C31.9692 8.81 32.7299 8.992 33.3365 8.992C33.9432 8.992 34.4005 8.86133 34.7085 8.6C35.0165 8.32933 35.1705 7.98867 35.1705 7.578C35.1705 7.16733 35.0025 6.81733 34.6665 6.528C34.3305 6.23867 33.8919 5.96333 33.3505 5.702C32.8185 5.43133 32.4592 5.24 32.2725 5.128C32.0859 5.016 31.8712 4.848 31.6285 4.624C31.1619 4.22267 30.9285 3.644 30.9285 2.888C30.9285 2.132 31.1945 1.53933 31.7265 1.11C32.2585 0.680666 32.9072 0.465999 33.6725 0.465999C34.4472 0.465999 35.2405 0.615333 36.0525 0.913999L35.6885 2.034C34.9792 1.782 34.3492 1.656 33.7985 1.656C33.2572 1.656 32.8559 1.768 32.5945 1.992C32.3425 2.20667 32.2165 2.49133 32.2165 2.846C32.2165 3.20067 32.3659 3.504 32.6645 3.756C32.9632 3.99867 33.3552 4.25067 33.8405 4.512C34.3259 4.764 34.6805 4.96467 34.9045 5.114C35.1379 5.26333 35.3899 5.45467 35.6605 5.688C36.1925 6.17333 36.4585 6.79867 36.4585 7.564ZM40.1914 10.182C39.4634 10.182 38.9827 10.0327 38.7494 9.734C38.5161 9.426 38.3994 8.90333 38.3994 8.166V3.91L37.0134 3.84L37.1394 3.014L38.4274 2.916L38.5534 1.236L39.6874 1.026V2.916H41.7594L41.6334 3.91H39.6734V8.292C39.6734 8.488 39.6781 8.63733 39.6874 8.74C39.7061 8.83333 39.7574 8.922 39.8414 9.006C39.9347 9.08067 40.1307 9.118 40.4294 9.118C40.7281 9.118 41.0267 9.06667 41.3254 8.964L41.5634 9.902C41.1247 10.0887 40.6674 10.182 40.1914 10.182ZM44.421 10.182C43.8144 10.182 43.329 10.0047 42.965 9.65C42.6104 9.29533 42.433 8.81933 42.433 8.222C42.433 7.83 42.517 7.49867 42.685 7.228C42.853 6.95733 43.0724 6.75667 43.343 6.626C43.8284 6.39267 44.337 6.276 44.869 6.276C45.401 6.276 45.8957 6.29933 46.353 6.346V5.254C46.353 4.71267 46.2597 4.344 46.073 4.148C45.8957 3.94267 45.5504 3.84 45.037 3.84C44.5237 3.84 43.9124 3.966 43.203 4.218L42.909 3.336C43.1797 3.168 43.5344 3.03267 43.973 2.93C44.421 2.82733 44.8084 2.776 45.135 2.776C46.0404 2.776 46.6797 2.972 47.053 3.364C47.4264 3.756 47.613 4.414 47.613 5.338V8.74C47.613 9.06667 47.725 9.23 47.949 9.23C48.0984 9.23 48.3037 9.188 48.565 9.104L48.775 9.888C48.4577 10.0933 48.047 10.196 47.543 10.196C47.039 10.196 46.675 9.958 46.451 9.482C46.2457 9.678 45.9564 9.846 45.583 9.986C45.219 10.1167 44.8317 10.182 44.421 10.182ZM44.687 9.188C45.275 9.188 45.8304 9.02 46.353 8.684V7.06C46.129 7.02267 45.765 7.004 45.261 7.004C44.169 7.004 43.6184 7.368 43.609 8.096C43.609 8.824 43.9684 9.188 44.687 9.188ZM52.6573 10.21C51.7146 10.21 50.9353 9.902 50.3193 9.286C49.7033 8.66067 49.3953 7.732 49.3953 6.5C49.3953 5.25867 49.7033 4.33 50.3193 3.714C50.9353 3.08867 51.6913 2.776 52.5873 2.776C53.222 2.776 53.8006 2.91133 54.3233 3.182L53.9453 4.078C53.4506 3.91933 53.0073 3.84 52.6153 3.84C52.0646 3.84 51.6026 4.05 51.2293 4.47C50.8653 4.89 50.6833 5.562 50.6833 6.486C50.6833 8.25 51.4066 9.132 52.8533 9.132C53.264 9.132 53.698 9.07133 54.1553 8.95L54.3653 9.874C53.768 10.098 53.1986 10.21 52.6573 10.21ZM57.0756 10H55.8016V0.199999L57.0756 0.0879999V6.066L59.7356 2.972H61.3036L58.4196 6.094C58.7463 6.49533 59.2876 7.144 60.0436 8.04C60.7996 8.936 61.3456 9.58933 61.6816 10H60.1416L57.0756 6.192V10ZM67.4491 0.872C67.9344 0.601333 68.4991 0.465999 69.1431 0.465999C69.7871 0.465999 70.3517 0.601333 70.8371 0.872C71.3224 1.14267 71.7004 1.51133 71.9711 1.978C72.5031 2.89267 72.7691 4.008 72.7691 5.324C72.7691 6.612 72.4984 7.72267 71.9571 8.656C71.6771 9.132 71.2944 9.50533 70.8091 9.776C70.3237 10.0467 69.7544 10.182 69.1011 10.182C68.4571 10.182 67.8971 10.0467 67.4211 9.776C66.9451 9.50533 66.5717 9.13667 66.3011 8.67C65.7691 7.75533 65.5031 6.64 65.5031 5.324C65.5031 4.01733 65.7784 2.902 66.3291 1.978C66.5997 1.51133 66.9731 1.14267 67.4491 0.872ZM67.4071 7.97C67.7804 8.65133 68.3544 8.992 69.1291 8.992C69.9037 8.992 70.4731 8.65133 70.8371 7.97C71.2104 7.28867 71.3971 6.40667 71.3971 5.324C71.3971 4.232 71.2104 3.35 70.8371 2.678C70.4731 1.99667 69.9037 1.656 69.1291 1.656C68.3544 1.656 67.7804 1.99667 67.4071 2.678C67.0431 3.35 66.8611 4.232 66.8611 5.324C66.8611 6.40667 67.0431 7.28867 67.4071 7.97ZM78.3844 2.93H79.6864L77.4184 10H76.0044L73.7504 2.916H75.1084L76.7184 8.74L78.3844 2.93ZM83.5245 10.182C82.4791 10.182 81.6998 9.82733 81.1865 9.118C80.6825 8.39933 80.4305 7.50333 80.4305 6.43C80.4305 5.34733 80.7011 4.47 81.2425 3.798C81.7838 3.11667 82.5258 2.776 83.4685 2.776C84.2618 2.776 84.8638 3 85.2745 3.448C85.6945 3.88667 85.9045 4.47 85.9045 5.198C85.9045 5.52467 85.8345 5.94467 85.6945 6.458H81.5785C81.5971 7.25133 81.7698 7.89533 82.0965 8.39C82.4231 8.88467 82.9085 9.132 83.5525 9.132C84.2058 9.132 84.8218 9.00133 85.4005 8.74L85.7225 9.608C85.0505 9.99067 84.3178 10.182 83.5245 10.182ZM84.7565 5.436C84.7565 4.932 84.6538 4.53533 84.4485 4.246C84.2431 3.95667 83.9585 3.812 83.5945 3.812C83.2305 3.812 82.9271 3.87733 82.6845 4.008C82.4511 4.12933 82.2691 4.288 82.1385 4.484C81.9145 4.85733 81.7745 5.20267 81.7185 5.52L84.7565 5.548V5.436ZM88.6847 10H87.4247V2.916H88.4747L88.6147 3.966C88.7827 3.686 89.058 3.42 89.4407 3.168C89.8327 2.90667 90.276 2.776 90.7707 2.776C91.0413 2.776 91.2467 2.79933 91.3867 2.846L91.1347 3.854C91.0507 3.84467 90.9293 3.84 90.7707 3.84C89.7533 3.84 89.058 4.20867 88.6847 4.946V10ZM97.8453 1.782H93.9813V4.624H97.5933V5.744H93.9813V10H92.6373V0.647999H97.8453V1.782ZM99.3742 0.199999H100.648V8.572C100.648 8.936 100.816 9.118 101.152 9.118C101.414 9.118 101.689 9.07133 101.978 8.978L102.188 9.902C101.806 10.0887 101.334 10.182 100.774 10.182C99.8409 10.182 99.3742 9.65 99.3742 8.586V0.199999ZM107.783 9.286C107.242 9.88333 106.532 10.182 105.655 10.182C104.778 10.182 104.078 9.888 103.555 9.3C103.032 8.712 102.771 7.77867 102.771 6.5C102.771 5.212 103.042 4.26933 103.583 3.672C104.134 3.07467 104.848 2.776 105.725 2.776C106.602 2.776 107.298 3.07 107.811 3.658C108.334 4.246 108.595 5.184 108.595 6.472C108.595 7.75067 108.324 8.68867 107.783 9.286ZM105.697 3.812C104.605 3.812 104.059 4.70333 104.059 6.486C104.059 8.25933 104.6 9.146 105.683 9.146C106.131 9.146 106.514 8.936 106.831 8.516C107.148 8.096 107.307 7.396 107.307 6.416C107.307 5.436 107.167 4.75933 106.887 4.386C106.616 4.00333 106.22 3.812 105.697 3.812ZM113.97 4.47L112.612 10H111.324L109.49 2.916H110.75L112.01 8.586L113.396 2.986L114.544 2.916L115.944 8.586L117.204 2.916H118.464L116.63 10H115.342L113.97 4.47Z" fill="white"/>
</svg>
