<svg width="142" height="10" viewBox="0 0 142 10" fill="none" xmlns="http://www.w3.org/2000/svg">
<path d="M5.664 6.756C5.664 7.468 5.416 8.048 4.92 8.496C4.432 8.936 3.772 9.156 2.94 9.156C2.54 9.156 2.088 9.104 1.584 9C1.088 8.888 0.676 8.756 0.348 8.604L0.792 7.176C1.528 7.512 2.224 7.68 2.88 7.68C3.624 7.68 3.996 7.392 3.996 6.816C3.996 6.536 3.872 6.296 3.624 6.096C3.376 5.896 3.04 5.7 2.616 5.508C2.192 5.308 1.888 5.156 1.704 5.052C1.528 4.948 1.332 4.8 1.116 4.608C0.708 4.248 0.504 3.724 0.504 3.036C0.504 2.348 0.744 1.808 1.224 1.416C1.712 1.024 2.312 0.827999 3.024 0.827999C3.744 0.827999 4.516 0.98 5.34 1.284L4.86 2.592C4.204 2.36 3.644 2.244 3.18 2.244C2.516 2.244 2.18 2.508 2.172 3.036C2.172 3.252 2.244 3.416 2.388 3.528C2.532 3.632 2.636 3.708 2.7 3.756C2.764 3.796 2.892 3.868 3.084 3.972C3.284 4.068 3.468 4.164 3.636 4.26C3.804 4.348 3.956 4.436 4.092 4.524C4.236 4.604 4.424 4.732 4.656 4.908C4.888 5.084 5.064 5.248 5.184 5.4C5.504 5.8 5.664 6.252 5.664 6.756ZM7.95628 6.096C7.97228 7.296 8.50028 7.896 9.54028 7.896C10.0283 7.896 10.5123 7.804 10.9923 7.62L11.2803 8.76C10.6643 9.024 9.98028 9.156 9.22828 9.156C7.33228 9.156 6.38428 8.04 6.38428 5.808C6.38428 4.928 6.62028 4.196 7.09228 3.612C7.56428 3.028 8.24428 2.736 9.13228 2.736C9.84428 2.736 10.3923 2.928 10.7763 3.312C11.1683 3.688 11.3643 4.216 11.3643 4.896C11.3643 5.296 11.3123 5.696 11.2083 6.096H7.95628ZM10.0203 5.184V5.112C10.0203 4.32 9.74028 3.924 9.18028 3.924C8.50828 3.924 8.10428 4.344 7.96828 5.184H10.0203ZM17.9108 8.796C17.5028 9.02 17.0548 9.132 16.5668 9.132C16.0868 9.132 15.7308 8.948 15.4988 8.58C15.0348 8.964 14.4908 9.156 13.8668 9.156C13.2428 9.156 12.7708 9 12.4508 8.688C12.1308 8.368 11.9708 7.936 11.9708 7.392C11.9708 7.032 12.0468 6.724 12.1988 6.468C12.3508 6.212 12.5468 6.024 12.7868 5.904C13.2268 5.696 13.6828 5.592 14.1548 5.592C14.6348 5.592 15.0188 5.604 15.3068 5.628V5.04C15.3068 4.624 15.2228 4.356 15.0548 4.236C14.8868 4.116 14.5988 4.056 14.1908 4.056C13.7908 4.056 13.3388 4.14 12.8348 4.308L12.4868 3.252C12.7828 3.076 13.1428 2.944 13.5668 2.856C13.9988 2.76 14.3668 2.712 14.6708 2.712C15.4868 2.712 16.0668 2.888 16.4108 3.24C16.7628 3.584 16.9388 4.176 16.9388 5.016V7.536C16.9388 7.76 17.0388 7.872 17.2388 7.872C17.3428 7.872 17.4908 7.848 17.6828 7.8L17.9108 8.796ZM14.3228 8.04C14.6588 8.04 14.9868 7.936 15.3068 7.728V6.468C15.0828 6.452 14.8868 6.444 14.7188 6.444C13.9268 6.444 13.5308 6.7 13.5308 7.212C13.5308 7.764 13.7948 8.04 14.3228 8.04ZM21.5319 4.08C20.8759 4.08 20.4159 4.268 20.1519 4.644V9H18.4719V2.844H19.8639L19.9959 3.624C20.4599 3.016 21.0519 2.712 21.7719 2.712C21.9719 2.712 22.1559 2.732 22.3239 2.772L22.0479 4.152C21.8719 4.104 21.6999 4.08 21.5319 4.08ZM25.4239 9.156C24.5999 9.156 23.9159 8.892 23.3719 8.364C22.8279 7.828 22.5559 7.024 22.5559 5.952C22.5559 4.872 22.8239 4.068 23.3599 3.54C23.8959 3.004 24.5839 2.736 25.4239 2.736C25.9199 2.736 26.4839 2.828 27.1159 3.012L26.7919 4.224C26.3039 4.112 25.9119 4.056 25.6159 4.056C25.1439 4.056 24.7799 4.2 24.5239 4.488C24.2759 4.768 24.1519 5.268 24.1519 5.988C24.1519 6.708 24.2879 7.208 24.5599 7.488C24.8399 7.768 25.2279 7.908 25.7239 7.908C25.9799 7.908 26.3719 7.868 26.8999 7.788L27.1039 8.88C26.4719 9.064 25.9119 9.156 25.4239 9.156ZM29.7496 3.396C29.9896 3.212 30.2736 3.056 30.6016 2.928C30.9296 2.8 31.2616 2.736 31.5976 2.736C31.9336 2.736 32.2256 2.788 32.4736 2.892C32.7216 2.988 32.9096 3.136 33.0376 3.336C33.2696 3.696 33.3856 4.18 33.3856 4.788V9H31.6336V5.088C31.6336 4.576 31.5256 4.272 31.3096 4.176C31.2056 4.128 31.0656 4.104 30.8896 4.104C30.4416 4.104 30.0616 4.252 29.7496 4.548V9H28.0696V0.636L29.7496 0.528V3.396ZM38.7069 7.608H42.1389V9H36.9789V0.972H42.0309V2.364H38.7069V4.176H41.8389V5.52H38.7069V7.608ZM45.1405 2.544V7.452H45.7405C46.5005 7.452 47.0085 7.256 47.2645 6.864C47.5285 6.464 47.6605 5.84 47.6605 4.992C47.6605 4.144 47.5325 3.524 47.2765 3.132C47.0205 2.74 46.5085 2.544 45.7405 2.544H45.1405ZM45.6685 9H43.4125V0.995999H45.6685C46.6765 0.995999 47.3805 1.1 47.7805 1.308C48.8365 1.852 49.3645 3.084 49.3645 5.004C49.3645 5.868 49.2365 6.628 48.9805 7.284C48.7325 7.94 48.3365 8.404 47.7925 8.676C47.3605 8.892 46.6525 9 45.6685 9ZM50.5596 6.048V0.995999H52.2996V5.988C52.2996 6.676 52.3796 7.128 52.5396 7.344C52.6996 7.584 53.0156 7.704 53.4876 7.704C53.9676 7.704 54.2836 7.58 54.4356 7.332C54.5956 7.124 54.6756 6.676 54.6756 5.988V0.995999H56.4156V6.048C56.4156 6.976 56.2276 7.704 55.8516 8.232C55.3716 8.824 54.5836 9.128 53.4876 9.144C52.3916 9.144 51.5996 8.84 51.1116 8.232C50.7436 7.696 50.5596 6.968 50.5596 6.048ZM62.6249 5.016V6.324H57.7409V5.016H62.6249ZM68.7695 6.756C68.7695 7.468 68.5215 8.048 68.0255 8.496C67.5375 8.936 66.8775 9.156 66.0455 9.156C65.6455 9.156 65.1935 9.104 64.6895 9C64.1935 8.888 63.7815 8.756 63.4535 8.604L63.8975 7.176C64.6335 7.512 65.3295 7.68 65.9855 7.68C66.7295 7.68 67.1015 7.392 67.1015 6.816C67.1015 6.536 66.9775 6.296 66.7295 6.096C66.4815 5.896 66.1455 5.7 65.7215 5.508C65.2975 5.308 64.9935 5.156 64.8095 5.052C64.6335 4.948 64.4375 4.8 64.2215 4.608C63.8135 4.248 63.6095 3.724 63.6095 3.036C63.6095 2.348 63.8495 1.808 64.3295 1.416C64.8175 1.024 65.4175 0.827999 66.1295 0.827999C66.8495 0.827999 67.6215 0.98 68.4455 1.284L67.9655 2.592C67.3095 2.36 66.7495 2.244 66.2855 2.244C65.6215 2.244 65.2855 2.508 65.2775 3.036C65.2775 3.252 65.3495 3.416 65.4935 3.528C65.6375 3.632 65.7415 3.708 65.8055 3.756C65.8695 3.796 65.9975 3.868 66.1895 3.972C66.3895 4.068 66.5735 4.164 66.7415 4.26C66.9095 4.348 67.0615 4.436 67.1975 4.524C67.3415 4.604 67.5295 4.732 67.7615 4.908C67.9935 5.084 68.1695 5.248 68.2895 5.4C68.6095 5.8 68.7695 6.252 68.7695 6.756ZM70.1194 7.02V4.008L69.0394 3.936V2.952L70.1554 2.856V1.452L71.8354 1.308V2.844H73.5874L73.4914 4.008H71.8234V7.176C71.8234 7.408 71.8594 7.576 71.9314 7.68C72.0034 7.776 72.1554 7.824 72.3874 7.824C72.6194 7.824 72.8794 7.788 73.1674 7.716L73.4194 8.904C73.0274 9.072 72.6274 9.156 72.2194 9.156C71.8194 9.156 71.5154 9.132 71.3074 9.084C71.1074 9.036 70.9394 8.98 70.8034 8.916C70.6754 8.852 70.5634 8.76 70.4674 8.64C70.3794 8.512 70.3114 8.4 70.2634 8.304C70.2234 8.208 70.1914 8.072 70.1674 7.896C70.1354 7.656 70.1194 7.364 70.1194 7.02ZM79.8912 8.796C79.4832 9.02 79.0352 9.132 78.5472 9.132C78.0672 9.132 77.7112 8.948 77.4792 8.58C77.0152 8.964 76.4712 9.156 75.8472 9.156C75.2232 9.156 74.7512 9 74.4312 8.688C74.1112 8.368 73.9512 7.936 73.9512 7.392C73.9512 7.032 74.0272 6.724 74.1792 6.468C74.3312 6.212 74.5272 6.024 74.7672 5.904C75.2072 5.696 75.6632 5.592 76.1352 5.592C76.6152 5.592 76.9992 5.604 77.2872 5.628V5.04C77.2872 4.624 77.2032 4.356 77.0352 4.236C76.8672 4.116 76.5792 4.056 76.1712 4.056C75.7712 4.056 75.3192 4.14 74.8152 4.308L74.4672 3.252C74.7632 3.076 75.1232 2.944 75.5472 2.856C75.9792 2.76 76.3472 2.712 76.6512 2.712C77.4672 2.712 78.0472 2.888 78.3912 3.24C78.7432 3.584 78.9192 4.176 78.9192 5.016V7.536C78.9192 7.76 79.0192 7.872 79.2192 7.872C79.3232 7.872 79.4712 7.848 79.6632 7.8L79.8912 8.796ZM76.3032 8.04C76.6392 8.04 76.9672 7.936 77.2872 7.728V6.468C77.0632 6.452 76.8672 6.444 76.6992 6.444C75.9072 6.444 75.5112 6.7 75.5112 7.212C75.5112 7.764 75.7752 8.04 76.3032 8.04ZM83.0684 9.156C82.2444 9.156 81.5604 8.892 81.0164 8.364C80.4724 7.828 80.2004 7.024 80.2004 5.952C80.2004 4.872 80.4684 4.068 81.0044 3.54C81.5404 3.004 82.2284 2.736 83.0684 2.736C83.5644 2.736 84.1284 2.828 84.7604 3.012L84.4364 4.224C83.9484 4.112 83.5564 4.056 83.2604 4.056C82.7884 4.056 82.4244 4.2 82.1684 4.488C81.9204 4.768 81.7964 5.268 81.7964 5.988C81.7964 6.708 81.9324 7.208 82.2044 7.488C82.4844 7.768 82.8724 7.908 83.3684 7.908C83.6244 7.908 84.0164 7.868 84.5444 7.788L84.7484 8.88C84.1164 9.064 83.5564 9.156 83.0684 9.156ZM87.3941 9H85.7141V0.611999L87.3941 0.491999V5.484L89.4341 2.856H91.2581L89.0381 5.628L91.7261 9H89.8061L87.3941 5.868V9ZM95.1132 2.136C95.3532 1.728 95.6892 1.412 96.1212 1.188C96.5612 0.956 97.0492 0.84 97.5852 0.84C98.1212 0.84 98.5772 0.92 98.9532 1.08C99.3372 1.232 99.6492 1.436 99.8892 1.692C100.129 1.948 100.325 2.256 100.477 2.616C100.757 3.288 100.897 4.08 100.897 4.992C100.897 6.128 100.669 7.08 100.213 7.848C99.9732 8.248 99.6332 8.564 99.1932 8.796C98.7532 9.028 98.2612 9.144 97.7172 9.144C97.1812 9.144 96.7252 9.068 96.3492 8.916C95.9732 8.756 95.6652 8.548 95.4252 8.292C95.1852 8.036 94.9892 7.728 94.8372 7.368C94.5572 6.696 94.4172 5.904 94.4172 4.992C94.4172 3.864 94.6492 2.912 95.1132 2.136ZM96.4332 6.972C96.6652 7.444 97.0732 7.68 97.6572 7.68C98.2412 7.68 98.6492 7.444 98.8812 6.972C99.1132 6.492 99.2292 5.904 99.2292 5.208C99.2292 4.512 99.1892 3.976 99.1092 3.6C99.0292 3.216 98.8692 2.896 98.6292 2.64C98.3892 2.376 98.0892 2.244 97.7292 2.244C97.3772 2.244 97.0932 2.316 96.8772 2.46C96.6692 2.596 96.5092 2.796 96.3972 3.06C96.1892 3.548 96.0852 4.204 96.0852 5.028C96.0852 5.844 96.2012 6.492 96.4332 6.972ZM104.427 7.656L105.711 2.844H107.403L105.483 9H103.371L101.487 2.844H103.179L104.427 7.656ZM109.323 6.096C109.339 7.296 109.867 7.896 110.907 7.896C111.395 7.896 111.879 7.804 112.359 7.62L112.647 8.76C112.031 9.024 111.347 9.156 110.595 9.156C108.699 9.156 107.751 8.04 107.751 5.808C107.751 4.928 107.987 4.196 108.459 3.612C108.931 3.028 109.611 2.736 110.499 2.736C111.211 2.736 111.759 2.928 112.143 3.312C112.535 3.688 112.731 4.216 112.731 4.896C112.731 5.296 112.679 5.696 112.575 6.096H109.323ZM111.387 5.184V5.112C111.387 4.32 111.107 3.924 110.547 3.924C109.875 3.924 109.471 4.344 109.335 5.184H111.387ZM116.817 4.08C116.161 4.08 115.701 4.268 115.437 4.644V9H113.757V2.844H115.149L115.281 3.624C115.745 3.016 116.337 2.712 117.057 2.712C117.257 2.712 117.441 2.732 117.609 2.772L117.333 4.152C117.157 4.104 116.985 4.08 116.817 4.08ZM123.418 2.364H120.106V4.176H123.13V5.52H120.106V9H118.366V0.983999H123.418V2.364ZM129.334 5.94C129.334 7.052 129.086 7.868 128.59 8.388C128.094 8.9 127.442 9.156 126.634 9.156C125.826 9.156 125.182 8.9 124.702 8.388C124.23 7.876 123.994 7.064 123.994 5.952C123.994 4.84 124.238 4.028 124.726 3.516C125.222 2.996 125.87 2.736 126.67 2.736C128.446 2.736 129.334 3.804 129.334 5.94ZM127.702 5.928C127.702 5.192 127.614 4.692 127.438 4.428C127.262 4.164 127.002 4.032 126.658 4.032C126.322 4.032 126.062 4.164 125.878 4.428C125.702 4.692 125.614 5.2 125.614 5.952C125.614 7.232 125.962 7.872 126.658 7.872C126.986 7.872 127.242 7.732 127.426 7.452C127.61 7.164 127.702 6.656 127.702 5.928ZM133.483 8.892C133.075 9.068 132.679 9.156 132.295 9.156C131.911 9.156 131.595 9.112 131.347 9.024C131.099 8.936 130.911 8.836 130.783 8.724C130.663 8.612 130.571 8.448 130.507 8.232C130.443 8.016 130.403 7.836 130.387 7.692C130.379 7.54 130.375 7.332 130.375 7.068V0.599999H132.067V7.164C132.067 7.396 132.099 7.56 132.163 7.656C132.235 7.752 132.375 7.8 132.583 7.8C132.791 7.8 133.007 7.772 133.231 7.716L133.483 8.892ZM136.567 2.952L138.115 2.844L138.991 7.62L139.651 2.844H141.295L139.915 9H138.115L137.371 4.524L136.615 9H134.743L133.471 2.844H135.115L135.739 7.656L136.567 2.952Z" fill="white"/>
</svg>
