<svg width="51" height="10" viewBox="0 0 51 10" fill="none" xmlns="http://www.w3.org/2000/svg">
<path d="M5.94783 2.268C5.74783 2.044 5.43983 1.84 5.02383 1.656C4.60783 1.472 4.14383 1.38 3.63183 1.38C2.97583 1.38 2.49183 1.504 2.17983 1.752C1.86783 2 1.71183 2.34 1.71183 2.772C1.71183 3.076 1.79183 3.316 1.95183 3.492C2.11183 3.668 2.35583 3.812 2.68383 3.924C3.01983 4.036 3.44383 4.152 3.95583 4.272C4.54783 4.4 5.05983 4.556 5.49183 4.74C5.92383 4.924 6.25583 5.172 6.48783 5.484C6.71983 5.788 6.83583 6.196 6.83583 6.708C6.83583 7.252 6.69983 7.7 6.42783 8.052C6.15583 8.404 5.78383 8.664 5.31183 8.832C4.84783 9 4.32383 9.084 3.73983 9.084C2.41183 9.084 1.25583 8.684 0.271828 7.884L0.787828 6.972C0.963828 7.148 1.19983 7.324 1.49583 7.5C1.79983 7.676 2.14383 7.824 2.52783 7.944C2.91983 8.056 3.33183 8.112 3.76383 8.112C4.37183 8.112 4.84383 8.004 5.17983 7.788C5.51583 7.564 5.68383 7.24 5.68383 6.816C5.68383 6.496 5.58783 6.24 5.39583 6.048C5.21183 5.856 4.93583 5.696 4.56783 5.568C4.19983 5.44 3.75183 5.312 3.22383 5.184C2.64783 5.04 2.16383 4.884 1.77183 4.716C1.37983 4.54 1.08383 4.312 0.883828 4.032C0.691828 3.752 0.595828 3.388 0.595828 2.94C0.595828 2.396 0.727828 1.936 0.991828 1.56C1.25583 1.184 1.61983 0.899999 2.08383 0.707999C2.54783 0.516 3.07183 0.42 3.65583 0.42C4.22383 0.42 4.73983 0.508 5.20383 0.684C5.67583 0.86 6.09183 1.096 6.45183 1.392L5.94783 2.268ZM8.02833 6.492V2.736H9.08433V6.288C9.08433 7.568 9.52833 8.208 10.4163 8.208C10.8483 8.208 11.2523 8.072 11.6283 7.8C12.0123 7.52 12.2963 7.14 12.4803 6.66V2.736H13.5363V7.8C13.5363 8.048 13.6483 8.176 13.8723 8.184V9C13.7523 9.016 13.6563 9.024 13.5843 9.024C13.5203 9.032 13.4563 9.036 13.3923 9.036C13.1923 9.036 13.0203 8.976 12.8763 8.856C12.7323 8.728 12.6563 8.572 12.6483 8.388L12.6243 7.656C12.3523 8.12 11.9843 8.48 11.5203 8.736C11.0643 8.992 10.5643 9.12 10.0203 9.12C8.69233 9.12 8.02833 8.244 8.02833 6.492ZM18.5114 9.12C18.0234 9.12 17.5794 9 17.1794 8.76C16.7794 8.52 16.4634 8.208 16.2314 7.824V9H15.2954V0.24H16.3514V3.984C16.6154 3.576 16.9394 3.248 17.3234 3C17.7074 2.752 18.1554 2.628 18.6674 2.628C19.0994 2.628 19.4874 2.72 19.8314 2.904C20.1754 3.08 20.4674 3.324 20.7074 3.636C20.9554 3.94 21.1434 4.288 21.2714 4.68C21.4074 5.064 21.4754 5.468 21.4754 5.892C21.4754 6.476 21.3434 7.016 21.0794 7.512C20.8234 8 20.4714 8.392 20.0234 8.688C19.5754 8.976 19.0714 9.12 18.5114 9.12ZM18.2474 8.208C18.6714 8.208 19.0434 8.1 19.3634 7.884C19.6834 7.66 19.9354 7.372 20.1194 7.02C20.3034 6.668 20.3954 6.292 20.3954 5.892C20.3954 5.484 20.3074 5.1 20.1314 4.74C19.9634 4.38 19.7234 4.092 19.4114 3.876C19.1074 3.652 18.7514 3.54 18.3434 3.54C17.8954 3.54 17.4954 3.684 17.1434 3.972C16.7994 4.26 16.5354 4.604 16.3514 5.004V6.816C16.4074 7.08 16.5354 7.32 16.7354 7.536C16.9434 7.744 17.1834 7.908 17.4554 8.028C17.7354 8.148 17.9994 8.208 18.2474 8.208ZM32.2159 9H31.1599V5.496C31.1599 4.84 31.0519 4.356 30.8359 4.044C30.6279 3.732 30.3159 3.576 29.8999 3.576C29.4759 3.576 29.0919 3.732 28.7479 4.044C28.4039 4.348 28.1599 4.744 28.0159 5.232V9H26.9599V5.496C26.9599 4.832 26.8559 4.348 26.6479 4.044C26.4399 3.732 26.1279 3.576 25.7119 3.576C25.2959 3.576 24.9119 3.728 24.5599 4.032C24.2159 4.328 23.9719 4.724 23.8279 5.22V9H22.7719V2.736H23.7319V4.08C23.9879 3.616 24.3199 3.26 24.7279 3.012C25.1359 2.756 25.5959 2.628 26.1079 2.628C26.6279 2.628 27.0439 2.772 27.3559 3.06C27.6679 3.34 27.8599 3.704 27.9319 4.152C28.4919 3.136 29.2879 2.628 30.3199 2.628C30.7999 2.628 31.1759 2.744 31.4479 2.976C31.7279 3.2 31.9239 3.512 32.0359 3.912C32.1559 4.304 32.2159 4.752 32.2159 5.256V9ZM43.3019 9H42.2459V5.496C42.2459 4.84 42.1379 4.356 41.9219 4.044C41.7139 3.732 41.4019 3.576 40.9859 3.576C40.5619 3.576 40.1779 3.732 39.8339 4.044C39.4899 4.348 39.2459 4.744 39.1019 5.232V9H38.0459V5.496C38.0459 4.832 37.9419 4.348 37.7339 4.044C37.5259 3.732 37.2139 3.576 36.7979 3.576C36.3819 3.576 35.9979 3.728 35.6459 4.032C35.3019 4.328 35.0579 4.724 34.9139 5.22V9H33.8579V2.736H34.8179V4.08C35.0739 3.616 35.4059 3.26 35.8139 3.012C36.2219 2.756 36.6819 2.628 37.1939 2.628C37.7139 2.628 38.1299 2.772 38.4419 3.06C38.7539 3.34 38.9459 3.704 39.0179 4.152C39.5779 3.136 40.3739 2.628 41.4059 2.628C41.8859 2.628 42.2619 2.744 42.5339 2.976C42.8139 3.2 43.0099 3.512 43.1219 3.912C43.2419 4.304 43.3019 4.752 43.3019 5.256V9ZM44.9438 1.56V0.24H45.9998V1.56H44.9438ZM44.9438 9V2.736H45.9998V9H44.9438ZM50.9494 8.688C50.8214 8.744 50.6174 8.824 50.3374 8.928C50.0654 9.032 49.7614 9.084 49.4254 9.084C49.0414 9.084 48.7094 8.98 48.4294 8.772C48.1494 8.556 48.0094 8.224 48.0094 7.776V3.564H47.1574V2.736H48.0094V0.648H49.0654V2.736H50.4694V3.564H49.0654V7.452C49.0814 7.676 49.1574 7.844 49.2934 7.956C49.4294 8.06 49.5894 8.112 49.7734 8.112C49.9814 8.112 50.1734 8.076 50.3494 8.004C50.5254 7.932 50.6414 7.88 50.6974 7.848L50.9494 8.688Z" fill="white"/>
</svg>
