<svg width="151" height="19" viewBox="0 0 151 19" fill="none" xmlns="http://www.w3.org/2000/svg">
<path d="M6.82304 1.31H8.01104L9.81104 5.846L11.629 1.31H12.835L10.603 6.764L13.051 12.542L17.677 1.22H19.045L13.627 14H12.511L9.82904 7.682L7.12904 14H6.03104L0.631039 1.22H1.98104L6.62504 12.542L9.05504 6.764L6.82304 1.31ZM24.5329 5.702C23.7169 5.726 22.9969 5.954 22.3729 6.386C21.7609 6.818 21.3289 7.412 21.0769 8.168V14H19.8529V4.622H21.0049V6.872C21.3289 6.212 21.7549 5.678 22.2829 5.27C22.8229 4.862 23.3929 4.634 23.9929 4.586C24.1129 4.574 24.2149 4.568 24.2989 4.568C24.3829 4.568 24.4609 4.574 24.5329 4.586V5.702ZM26.1635 2.66V0.86H27.3875V2.66H26.1635ZM26.1635 14V4.622H27.3875V14H26.1635ZM34.5834 13.55C34.4394 13.61 34.1754 13.718 33.7914 13.874C33.4074 14.03 32.9634 14.108 32.4594 14.108C31.9314 14.108 31.4694 13.958 31.0734 13.658C30.6774 13.358 30.4794 12.908 30.4794 12.308V5.594H29.1834V4.622H30.4794V1.454H31.7034V4.622H33.8634V5.594H31.7034V11.966C31.7274 12.314 31.8474 12.572 32.0634 12.74C32.2914 12.896 32.5494 12.974 32.8374 12.974C33.1734 12.974 33.4734 12.92 33.7374 12.812C34.0134 12.692 34.1874 12.608 34.2594 12.56L34.5834 13.55ZM40.0045 14.18C39.1045 14.18 38.3005 13.958 37.5925 13.514C36.8845 13.07 36.3265 12.476 35.9185 11.732C35.5105 10.988 35.3065 10.172 35.3065 9.284C35.3065 8.408 35.5045 7.604 35.9005 6.872C36.3085 6.14 36.8665 5.558 37.5745 5.126C38.2825 4.682 39.0865 4.46 39.9865 4.46C40.9105 4.46 41.7205 4.682 42.4165 5.126C43.1125 5.57 43.6525 6.158 44.0365 6.89C44.4325 7.61 44.6305 8.402 44.6305 9.266C44.6305 9.458 44.6245 9.62 44.6125 9.752H36.5845C36.6445 10.424 36.8365 11.024 37.1605 11.552C37.4845 12.068 37.8985 12.482 38.4025 12.794C38.9065 13.094 39.4585 13.244 40.0585 13.244C40.6705 13.244 41.2465 13.088 41.7865 12.776C42.3265 12.464 42.7105 12.056 42.9385 11.552L44.0005 11.84C43.8085 12.296 43.5085 12.704 43.1005 13.064C42.7045 13.412 42.2425 13.688 41.7145 13.892C41.1865 14.084 40.6165 14.18 40.0045 14.18ZM36.5485 8.87H43.4785C43.4305 8.198 43.2445 7.604 42.9205 7.088C42.5965 6.56 42.1825 6.152 41.6785 5.864C41.1745 5.564 40.6165 5.414 40.0045 5.414C39.3925 5.414 38.8345 5.564 38.3305 5.864C37.8265 6.152 37.4125 6.56 37.0885 7.088C36.7765 7.604 36.5965 8.198 36.5485 8.87ZM51.1546 16.88C51.3226 16.892 51.4846 16.898 51.6406 16.898C51.7966 16.91 51.9106 16.904 51.9826 16.88C52.1266 16.868 52.2586 16.784 52.3786 16.628C52.5106 16.484 52.6666 16.208 52.8466 15.8C53.0386 15.404 53.2966 14.804 53.6206 14L49.5346 4.622H50.8306L54.2686 12.74L57.4366 4.622H58.6606L53.8006 16.718C53.6686 17.066 53.4466 17.366 53.1346 17.618C52.8226 17.87 52.4086 18.002 51.8926 18.014C51.7846 18.026 51.6706 18.026 51.5506 18.014C51.4306 18.014 51.2986 18.002 51.1546 17.978V16.88ZM64.0325 14.18C63.1325 14.18 62.3285 13.958 61.6205 13.514C60.9245 13.07 60.3785 12.482 59.9825 11.75C59.5865 11.006 59.3885 10.202 59.3885 9.338C59.3885 8.462 59.5865 7.658 59.9825 6.926C60.3905 6.182 60.9425 5.588 61.6385 5.144C62.3465 4.688 63.1445 4.46 64.0325 4.46C64.9325 4.46 65.7305 4.688 66.4265 5.144C67.1345 5.588 67.6865 6.182 68.0825 6.926C68.4905 7.658 68.6945 8.462 68.6945 9.338C68.6945 10.202 68.4965 11.006 68.1005 11.75C67.7045 12.482 67.1525 13.07 66.4445 13.514C65.7485 13.958 64.9445 14.18 64.0325 14.18ZM60.6305 9.356C60.6305 10.052 60.7805 10.688 61.0805 11.264C61.3925 11.828 61.8065 12.278 62.3225 12.614C62.8385 12.938 63.4085 13.1 64.0325 13.1C64.6565 13.1 65.2265 12.932 65.7425 12.596C66.2585 12.26 66.6725 11.804 66.9845 11.228C67.2965 10.652 67.4525 10.016 67.4525 9.32C67.4525 8.624 67.2965 7.988 66.9845 7.412C66.6725 6.836 66.2585 6.38 65.7425 6.044C65.2265 5.708 64.6565 5.54 64.0325 5.54C63.4205 5.54 62.8565 5.714 62.3405 6.062C61.8245 6.398 61.4105 6.854 61.0985 7.43C60.7865 8.006 60.6305 8.648 60.6305 9.356ZM70.6516 10.13V4.622H71.8756V9.914C71.8756 12.038 72.6016 13.1 74.0536 13.1C74.7736 13.1 75.4456 12.866 76.0696 12.398C76.7056 11.93 77.1616 11.306 77.4376 10.526V4.622H78.6616V12.524C78.6616 12.848 78.8056 13.016 79.0936 13.028V14C78.9496 14.024 78.8356 14.036 78.7516 14.036C78.6796 14.036 78.6016 14.036 78.5176 14.036C78.2656 14.012 78.0496 13.916 77.8696 13.748C77.7016 13.58 77.6176 13.376 77.6176 13.136L77.5816 11.876C77.1736 12.608 76.6156 13.178 75.9076 13.586C75.2116 13.982 74.4556 14.18 73.6396 14.18C71.6476 14.18 70.6516 12.83 70.6516 10.13ZM86.1091 5.702C85.2931 5.726 84.5731 5.954 83.9491 6.386C83.3371 6.818 82.9051 7.412 82.6531 8.168V14H81.4291V4.622H82.5811V6.872C82.9051 6.212 83.3311 5.678 83.8591 5.27C84.3991 4.862 84.9691 4.634 85.5691 4.586C85.6891 4.574 85.7911 4.568 85.8751 4.568C85.9591 4.568 86.0371 4.574 86.1091 4.586V5.702ZM91.1497 11.3C91.1497 10.724 91.3177 10.226 91.6537 9.806C91.9897 9.374 92.4517 9.038 93.0397 8.798C93.6397 8.558 94.3297 8.438 95.1097 8.438C95.5657 8.438 96.0397 8.48 96.5317 8.564C97.0237 8.636 97.4617 8.738 97.8457 8.87V8.078C97.8457 7.286 97.6117 6.656 97.1437 6.188C96.6757 5.72 96.0277 5.486 95.1997 5.486C94.7077 5.486 94.2157 5.582 93.7237 5.774C93.2317 5.954 92.7217 6.224 92.1937 6.584L91.7257 5.72C92.3377 5.3 92.9377 4.988 93.5257 4.784C94.1137 4.568 94.7137 4.46 95.3257 4.46C96.4777 4.46 97.3897 4.79 98.0617 5.45C98.7337 6.11 99.0697 7.022 99.0697 8.186V12.524C99.0697 12.848 99.2197 13.016 99.5197 13.028V14C99.2557 14.036 99.0697 14.048 98.9617 14.036C98.6617 14.024 98.4337 13.928 98.2777 13.748C98.1217 13.568 98.0377 13.376 98.0257 13.172L98.0077 12.488C97.5877 13.028 97.0417 13.448 96.3697 13.748C95.6977 14.036 95.0137 14.18 94.3177 14.18C93.7057 14.18 93.1597 14.054 92.6797 13.802C92.1997 13.538 91.8217 13.19 91.5457 12.758C91.2817 12.314 91.1497 11.828 91.1497 11.3ZM97.4317 12.02C97.7077 11.696 97.8457 11.396 97.8457 11.12V9.752C97.0177 9.428 96.1537 9.266 95.2537 9.266C94.3777 9.266 93.6697 9.44 93.1297 9.788C92.5897 10.136 92.3197 10.61 92.3197 11.21C92.3197 11.726 92.5177 12.194 92.9137 12.614C93.3217 13.034 93.8857 13.244 94.6057 13.244C95.1937 13.244 95.7397 13.13 96.2437 12.902C96.7597 12.674 97.1557 12.38 97.4317 12.02ZM109.598 14H108.374V8.762C108.374 7.658 108.206 6.854 107.87 6.35C107.546 5.834 107.042 5.576 106.358 5.576C105.878 5.576 105.404 5.696 104.936 5.936C104.468 6.164 104.054 6.482 103.694 6.89C103.346 7.286 103.094 7.742 102.938 8.258V14H101.714V4.622H102.83V6.746C103.202 6.062 103.748 5.51 104.468 5.09C105.188 4.67 105.968 4.46 106.808 4.46C107.504 4.46 108.056 4.628 108.464 4.964C108.872 5.288 109.16 5.756 109.328 6.368C109.508 6.968 109.598 7.682 109.598 8.51V14ZM115.286 14.18C114.518 14.18 113.804 14.054 113.144 13.802C112.496 13.538 111.926 13.154 111.434 12.65L111.938 11.786C112.466 12.278 112.994 12.638 113.522 12.866C114.062 13.082 114.632 13.19 115.232 13.19C115.952 13.19 116.54 13.046 116.996 12.758C117.464 12.458 117.698 12.032 117.698 11.48C117.698 11.108 117.584 10.826 117.356 10.634C117.14 10.43 116.822 10.268 116.402 10.148C115.994 10.028 115.502 9.89 114.926 9.734C114.278 9.554 113.732 9.368 113.288 9.176C112.856 8.972 112.526 8.72 112.298 8.42C112.082 8.108 111.974 7.706 111.974 7.214C111.974 6.614 112.124 6.11 112.424 5.702C112.736 5.294 113.156 4.988 113.684 4.784C114.224 4.568 114.824 4.46 115.484 4.46C116.204 4.46 116.84 4.574 117.392 4.802C117.944 5.03 118.394 5.348 118.742 5.756L118.148 6.584C117.824 6.2 117.422 5.918 116.942 5.738C116.474 5.546 115.964 5.45 115.412 5.45C115.028 5.45 114.662 5.504 114.314 5.612C113.966 5.708 113.678 5.876 113.45 6.116C113.234 6.344 113.126 6.662 113.126 7.07C113.126 7.574 113.312 7.922 113.684 8.114C114.056 8.306 114.62 8.51 115.376 8.726C116.084 8.918 116.702 9.11 117.23 9.302C117.758 9.494 118.166 9.752 118.454 10.076C118.742 10.388 118.886 10.826 118.886 11.39C118.886 12.266 118.556 12.95 117.896 13.442C117.236 13.934 116.366 14.18 115.286 14.18ZM132.542 4.622H133.748L129.716 14H128.654L126.692 9.338L124.748 14H123.686L119.654 4.622H120.842L124.262 12.74L125.99 8.51L124.406 4.64H125.504L126.692 7.682L127.898 4.64H128.978L127.412 8.51L129.14 12.74L132.542 4.622ZM139.11 14.18C138.21 14.18 137.406 13.958 136.698 13.514C135.99 13.07 135.432 12.476 135.024 11.732C134.616 10.988 134.412 10.172 134.412 9.284C134.412 8.408 134.61 7.604 135.006 6.872C135.414 6.14 135.972 5.558 136.68 5.126C137.388 4.682 138.192 4.46 139.092 4.46C140.016 4.46 140.826 4.682 141.522 5.126C142.218 5.57 142.758 6.158 143.142 6.89C143.538 7.61 143.736 8.402 143.736 9.266C143.736 9.458 143.73 9.62 143.718 9.752H135.69C135.75 10.424 135.942 11.024 136.266 11.552C136.59 12.068 137.004 12.482 137.508 12.794C138.012 13.094 138.564 13.244 139.164 13.244C139.776 13.244 140.352 13.088 140.892 12.776C141.432 12.464 141.816 12.056 142.044 11.552L143.106 11.84C142.914 12.296 142.614 12.704 142.206 13.064C141.81 13.412 141.348 13.688 140.82 13.892C140.292 14.084 139.722 14.18 139.11 14.18ZM135.654 8.87H142.584C142.536 8.198 142.35 7.604 142.026 7.088C141.702 6.56 141.288 6.152 140.784 5.864C140.28 5.564 139.722 5.414 139.11 5.414C138.498 5.414 137.94 5.564 137.436 5.864C136.932 6.152 136.518 6.56 136.194 7.088C135.882 7.604 135.702 8.198 135.654 8.87ZM150.304 5.702C149.488 5.726 148.768 5.954 148.144 6.386C147.532 6.818 147.1 7.412 146.848 8.168V14H145.624V4.622H146.776V6.872C147.1 6.212 147.526 5.678 148.054 5.27C148.594 4.862 149.164 4.634 149.764 4.586C149.884 4.574 149.986 4.568 150.07 4.568C150.154 4.568 150.232 4.574 150.304 4.586V5.702Z" fill="#F7E6E6"/>
</svg>
